HIERARCHY
ROOT hip
{
	OFFSET 0.000000 0.000000 0.000000 
	CHANNELS 6 Xposition Yposition Zposition Xrotation Zrotation Yrotation
	JOINT abdomen
	{
		OFFSET 0.000000 3.402643 0.000000 
		CHANNELS 3 Xrotation Zrotation Yrotation
		JOINT chest
		{
			OFFSET 0.000000 8.438565 -0.680529 
			CHANNELS 3 Xrotation Zrotation Yrotation
			JOINT neck
			{
				OFFSET 0.000000 10.207942 -0.272212 
				CHANNELS 3 Xrotation Zrotation Yrotation
				JOINT head
				{
					OFFSET 0.000000 3.130431 0.000000 
					CHANNELS 3 Xrotation Zrotation Yrotation
					End Site
					{
						OFFSET 0.000000 3.130435 0.000000 
					}
				}
			}
			JOINT lCollar
			{
				OFFSET 3.470700 6.669187 -0.816635 
				CHANNELS 3 Yrotation Zrotation Xrotation
				JOINT lShldr
				{
					OFFSET 3.198488 0.000000 0.000000 
					CHANNELS 3 Zrotation Yrotation Xrotation
					JOINT lForeArm
					{
						OFFSET 10.139888 0.000000 0.000000 
						CHANNELS 3 Yrotation Zrotation Xrotation
						JOINT lHand
						{
							OFFSET 8.370511 0.000000 0.000000 
							CHANNELS 3 Zrotation Yrotation Xrotation
							End Site
							{
								OFFSET 4.083176 0.000000 0.000000 
							}
						}
					}
				}
			}
			JOINT rCollar
			{
				OFFSET -3.470700 6.669187 -0.816635 
				CHANNELS 3 Yrotation Zrotation Xrotation
				JOINT rShldr
				{
					OFFSET -3.198488 0.000000 0.000000 
					CHANNELS 3 Zrotation Yrotation Xrotation
					JOINT rForeArm
					{
						OFFSET -10.139888 0.000000 0.000000 
						CHANNELS 3 Yrotation Zrotation Xrotation
						JOINT rHand
						{
							OFFSET -8.370511 0.000000 0.000000 
							CHANNELS 3 Zrotation Yrotation Xrotation
							End Site
							{
								OFFSET -4.083176 0.000000 0.000000 
							}
						}
					}
				}
			}
		}
	}
	JOINT lThigh
	{
		OFFSET 5.308129 -1.633274 1.361059 
		CHANNELS 3 Xrotation Zrotation Yrotation
		JOINT lShin
		{
			OFFSET -2.041588 -20.007561 0.000000 
			CHANNELS 3 Xrotation Zrotation Yrotation
			JOINT lFoot
			{
				OFFSET 0.000000 -19.190928 -1.224953 
				CHANNELS 3 Xrotation Yrotation Zrotation
				End Site
				{
					OFFSET 0.000000 -2.449906 4.627600 
				}
			}
		}
	}
	JOINT rThigh
	{
		OFFSET -5.308129 -1.633274 1.361059 
		CHANNELS 3 Xrotation Zrotation Yrotation
		JOINT rShin
		{
			OFFSET 2.041588 -20.007561 0.000000 
			CHANNELS 3 Xrotation Zrotation Yrotation
			JOINT rFoot
			{
				OFFSET 0.000000 -19.190928 -1.224953 
				CHANNELS 3 Xrotation Yrotation Zrotation
				End Site
				{
					OFFSET 0.000000 -2.449906 4.627600 
				}
			}
		}
	}
}
MOTION
Frames: 10
Frame Time: 0.016667
0.442256 49.817295 -3.112637 3.510011 4.921590 0.617993 3.245823 -1.240650 7.013237 0.000000 0.000000 0.000000 -12.740398 -0.526830 -2.529459 0.000000 0.000000 0.000000 0.000000 0.000000 0.000000 -66.785622 -6.736857 74.615410 -14.229507 10.906095 -2.001994 6.847517 2.877380 -36.029099 0.000000 0.000000 0.000000 73.710548 4.663213 62.484653 13.329890 -10.208111 -0.222004 -4.523170 12.772043 -41.745277 -4.844097 0.068777 3.831541 4.115778 -2.224389 -0.147613 0.406887 2.293647 -4.146950 -9.762159 -7.311389 -5.482595 15.884966 -2.402287 -6.838147 -8.239354 1.118396 -0.265037 
0.391860 49.822872 -3.123858 3.861678 4.743385 1.940697 3.157933 -1.240650 7.013237 0.000000 0.000000 0.000000 -14.771787 1.053253 -2.988673 0.000000 0.000000 0.000000 0.000000 0.000000 0.000000 -65.929321 -2.102245 72.655678 -15.452603 12.719112 0.675198 8.942946 1.791903 -33.867455 0.000000 0.000000 0.000000 73.422493 1.970500 61.242672 16.012800 -11.084184 3.445986 -2.073834 11.490761 -36.941807 -4.923208 1.022979 3.152973 3.853904 -2.704176 0.318749 0.688420 2.396113 -4.569364 -8.024178 -7.672122 -5.658931 13.755813 -2.304537 -6.613035 -7.929897 1.428978 0.658402 
0.257500 49.710903 -3.308603 5.358666 4.502388 3.693262 3.246362 -1.512605 6.838183 0.000000 0.000000 0.000000 -18.447245 2.230867 -4.006569 0.000000 0.000000 0.000000 0.000000 0.000000 0.000000 -65.088669 1.066241 71.067749 -17.007563 14.793206 2.849298 11.088726 0.966250 -32.380116 0.000000 0.000000 0.000000 72.793808 0.120832 60.770920 19.472879 -12.301964 7.619060 -0.251079 10.528016 -33.178040 -7.587591 1.982672 2.179934 5.926213 -3.897174 0.570057 0.193247 2.650281 -4.762966 -9.365022 -8.398198 -5.738021 14.859867 -1.982291 -6.623328 -8.556219 1.525013 1.368428 
0.123136 49.598888 -3.493364 6.846153 4.209508 5.445103 3.337586 -1.775045 6.663298 0.000000 0.000000 0.000000 -22.152859 3.336396 -5.096294 0.000000 0.000000 0.000000 0.000000 0.000000 0.000000 -64.333931 4.244810 69.524345 -18.654619 16.806547 5.108267 13.212387 0.078066 -30.923620 0.000000 0.000000 0.000000 72.180840 -1.744285 60.313705 23.038252 -13.268527 11.887338 1.504298 9.450824 -29.452984 -10.248420 2.908396 1.174429 7.995119 -5.076677 0.788016 -0.318005 2.919321 -4.949492 -10.720675 -9.138596 -5.808322 15.960382 -1.660246 -6.656691 -9.197329 1.636053 2.132927 
-0.033616 49.207005 -3.778879 9.405448 4.077276 7.392472 3.599435 -2.300037 6.401500 0.000000 0.000000 0.000000 -27.079489 3.561644 -6.408345 0.000000 0.000000 0.000000 0.000000 0.000000 0.000000 -63.487907 5.595352 68.512138 -20.294361 18.786079 6.441147 15.457270 -0.357541 -30.339134 0.000000 0.000000 0.000000 71.422638 -2.368161 60.775078 26.988394 -14.629734 15.606760 2.553996 9.307347 -27.323700 -15.697499 3.377428 0.523510 12.925742 -6.424696 -1.073091 -1.816624 3.813466 -4.685435 -15.503461 -10.221366 -4.982369 21.044477 -0.771373 -6.963554 -10.255434 1.081986 2.276838 
-0.190376 48.815060 -4.064402 11.951953 3.864498 9.318331 3.866077 -2.825520 6.140251 0.000000 0.000000 0.000000 -32.003387 3.677216 -7.740552 0.000000 0.000000 0.000000 0.000000 0.000000 0.000000 -62.661575 6.960967 67.521957 -22.002802 20.727222 7.856758 17.698912 -0.816048 -29.770189 0.000000 0.000000 0.000000 70.658722 -2.966076 61.243965 31.054333 -15.728683 19.442785 3.615990 9.122447 -25.197948 -21.164776 3.777701 -0.176395 17.915918 -7.596758 -3.004186 -3.307891 4.660211 -4.383683 -20.330225 -11.239329 -4.063597 26.102764 0.146507 -7.209934 -11.324137 0.530737 2.401650 
-0.380719 48.048088 -4.400302 14.934340 3.461842 10.909246 4.037599 -3.526929 5.782143 0.000000 0.000000 0.000000 -37.285431 3.020475 -8.830710 0.000000 0.000000 0.000000 0.000000 0.000000 0.000000 -62.157822 6.904236 66.418266 -22.933674 22.372475 7.820317 20.724310 -0.697026 -29.924053 0.000000 0.000000 0.000000 69.625885 -2.821045 62.563843 35.591785 -17.374846 22.447866 4.115939 9.853291 -24.468679 -29.164963 3.807614 -0.372153 25.728655 -8.466801 -5.565335 -5.529482 5.700633 -3.753114 -27.993942 -12.478632 -2.486789 33.979992 1.044188 -6.864864 -11.607721 -0.196547 2.574016 
-0.571068 47.281105 -4.736173 17.913887 2.975036 12.478339 4.217885 -4.229089 5.424908 0.000000 0.000000 0.000000 -42.552811 2.270672 -9.861178 0.000000 0.000000 0.000000 0.000000 0.000000 0.000000 -61.657974 6.858229 65.316360 -23.874382 24.008959 7.818443 23.751102 -0.579019 -30.064354 0.000000 0.000000 0.000000 68.598045 -2.651845 63.879181 40.256607 -18.784517 25.595741 4.623811 10.569830 -23.736401 -37.159908 3.807717 -0.560877 33.576031 -8.955688 -8.245522 -7.789297 6.727744 -3.086469 -35.718971 -13.504657 -0.738212 41.890408 1.883988 -6.388397 -11.918328 -0.891271 2.715873 
-0.795001 46.418961 -4.937713 20.122589 2.554989 13.451317 4.739219 -4.667172 5.349262 0.000000 0.000000 0.000000 -47.032619 1.239335 -10.334445 0.000000 0.000000 0.000000 0.000000 0.000000 0.000000 -61.486012 6.238412 63.494328 -24.058477 24.968624 7.185612 27.374180 -0.079840 -30.347586 0.000000 0.000000 0.000000 67.298691 -2.002817 65.058388 45.510326 -20.372061 27.705637 5.208335 11.411808 -23.783916 -44.555420 3.700257 -0.213346 41.836578 -8.315997 -11.171393 -10.073366 8.047137 -2.536181 -42.559574 -14.128471 0.914269 49.594383 2.235582 -5.209847 -12.765985 -1.636104 2.913152 
-1.018937 45.556843 -5.139196 22.319324 2.109245 14.414454 5.262575 -5.105435 5.264990 0.000000 0.000000 0.000000 -51.507313 0.172712 -10.722696 0.000000 0.000000 0.000000 0.000000 0.000000 0.000000 -61.302212 5.629594 61.678017 -24.216976 25.922207 6.556442 30.991840 0.423944 -30.603069 0.000000 0.000000 0.000000 66.010048 -1.328689 66.216324 50.872089 -21.782562 29.975283 5.792884 12.247690 -23.825418 -51.955120 3.631803 0.157828 50.045155 -7.271504 -13.948546 -12.390945 9.337992 -1.921683 -49.450638 -14.569386 2.596930 57.293640 2.395556 -3.977686 -13.619054 -2.367888 3.095963 
